<?xml version="1.0" encoding="UTF-8" standalone="no"?>
<!-- Created with Inkscape (http://www.inkscape.org/) -->

<svg
   xmlns:dc="http://purl.org/dc/elements/1.1/"
   xmlns:cc="http://creativecommons.org/ns#"
   xmlns:rdf="http://www.w3.org/1999/02/22-rdf-syntax-ns#"
   xmlns:svg="http://www.w3.org/2000/svg"
   xmlns="http://www.w3.org/2000/svg"
   xmlns:sodipodi="http://sodipodi.sourceforge.net/DTD/sodipodi-0.dtd"
   xmlns:inkscape="http://www.inkscape.org/namespaces/inkscape"
   width="705.05078"
   height="160.01019"
   id="svg4170"
   version="1.1"
   inkscape:version="0.48.5 r10040"
   sodipodi:docname="W8LTLinearLogo.svg">
  <defs
     id="defs4172" />
  <sodipodi:namedview
     id="base"
     pagecolor="#ffffff"
     bordercolor="#666666"
     borderopacity="1.0"
     inkscape:pageopacity="0.0"
     inkscape:pageshadow="2"
     inkscape:zoom="1.4"
     inkscape:cx="331.51352"
     inkscape:cy="98.076972"
     inkscape:document-units="px"
     inkscape:current-layer="layer1"
     showgrid="false"
     fit-margin-top="0"
     fit-margin-left="0"
     fit-margin-right="0"
     fit-margin-bottom="0"
     inkscape:window-width="1223"
     inkscape:window-height="593"
     inkscape:window-x="133"
     inkscape:window-y="65"
     inkscape:window-maximized="0" />
  <metadata
     id="metadata4175">
    <rdf:RDF>
      <cc:Work
         rdf:about="">
        <dc:format>image/svg+xml</dc:format>
        <dc:type
           rdf:resource="http://purl.org/dc/dcmitype/StillImage" />
        <dc:title />
      </cc:Work>
    </rdf:RDF>
  </metadata>
  <g
     inkscape:label="Layer 1"
     inkscape:groupmode="layer"
     id="layer1"
     transform="translate(-13.15625,-349.48981)">
    <text
       xml:space="preserve"
       style="font-size:54.40000152999999700px;font-style:normal;font-variant:normal;font-weight:normal;font-stretch:normal;line-height:125%;letter-spacing:0px;word-spacing:0px;fill:#000000;fill-opacity:1;stroke:none;display:inline;font-family:'ADAM.CG PRO';-inkscape-font-specification:'ADAM.CG PRO'"
       x="347.82083"
       y="431.55609"
       id="text5337-4"
       sodipodi:linespacing="125%"><tspan
         sodipodi:role="line"
         id="tspan5339-5"
         x="347.82083"
         y="431.55609"
         style="font-size:34px;fill:#000000;fill-opacity:1">Amateur Radio Club</tspan></text>
    <text
       xml:space="preserve"
       style="font-size:54.40000153px;font-style:normal;font-variant:normal;font-weight:normal;font-stretch:normal;line-height:125%;letter-spacing:0px;word-spacing:0px;fill:#000000;fill-opacity:1;stroke:none;display:inline;font-family:'ADAM.CG PRO';-inkscape-font-specification:'ADAM.CG PRO'"
       x="386.00479"
       y="457.77661"
       id="text5341-5"
       sodipodi:linespacing="125%"><tspan
         sodipodi:role="line"
         id="tspan5343-1"
         x="386.00479"
         y="457.77661"
         style="font-size:30.60000038px;letter-spacing:-0.8075px;word-spacing:0px;fill:#000000;fill-opacity:1">at OSU - Since 1926</tspan></text>
    <path
       style="fill:#000000;stroke:#000000;stroke-width:1.79775000000000000;stroke-linecap:butt;stroke-linejoin:miter;stroke-miterlimit:4;stroke-opacity:1;stroke-dasharray:none;display:inline;fill-opacity:1"
       d="m 338.36831,508.5913 -4.83965,0 -0.26451,-132.31884 -55.41397,-5.35424 c 0,0 -1.36153,-0.13525 -1.24349,-1.97201 0.11804,-1.83678 1.3324,-1.75088 1.3324,-1.75088 l 111.63172,10.76772 c 0,0 1.58759,0.35873 1.42135,1.92145 -0.16624,1.56273 -1.36382,1.69086 -1.36382,1.69086 l -51.90395,-4.86064 z"
       id="path5349-1"
       inkscape:connector-curvature="0"
       sodipodi:nodetypes="cccczcczccc" />
    <path
       inkscape:connector-curvature="0"
       id="path4409-7-74"
       style="font-size:144px;font-style:oblique;font-variant:normal;font-weight:normal;font-stretch:normal;line-height:125%;letter-spacing:0px;word-spacing:0px;fill:#000000;fill-opacity:1;stroke:none;display:inline;font-family:'That\'s Font Folks!';-inkscape-font-specification:'That\'s Font Folks! Oblique'"
       d="m 228.14696,406.53294 c -1.79305,1.6735 -14.31692,5.91588 -34.99576,22.17206 10.04057,7.92894 15.77807,14.22426 17.2125,18.88594 1.11556,3.62581 1.67337,6.75354 1.67344,9.3832 -7e-5,0.75705 -0.0399,1.47424 -0.11953,2.15156 -0.43835,3.02814 -1.29499,5.63791 -2.56992,7.8293 -1.27506,2.19142 -3.28717,4.1836 -6.03633,5.97656 -2.74927,1.79297 -6.91295,3.06797 -12.49102,3.825 -3.1477,0.43829 -6.1559,0.65743 -9.0246,0.65743 -2.1516,0 -4.20355,-0.13946 -6.15587,-0.41837 -4.58206,-0.55781 -8.33732,-1.72323 -11.26582,-3.49628 -2.92853,-1.77304 -4.85098,-3.83496 -5.76738,-6.18574 -0.79689,-1.95233 -1.19533,-3.94452 -1.19531,-5.97657 -2e-5,-0.35858 0.0199,-0.71717 0.0598,-1.07578 0.15935,-2.39061 1.1156,-5.38885 2.86875,-8.99473 1.7531,-3.60582 9.02458,-11.30563 21.81445,-23.09941 -4.74144,-6.93276 -7.11214,-12.8097 -7.11211,-17.63086 -3e-5,-0.43821 0.0398,-0.89642 0.11953,-1.37461 0.47809,-5.02024 1.56384,-9.14406 3.25723,-12.37148 1.69332,-3.22726 4.37281,-5.95655 8.03847,-8.1879 3.66558,-2.23115 7.55035,-3.54599 11.6543,-3.94452 1.55385,-0.11945 3.10775,-0.17921 4.66172,-0.1793 2.54994,9e-5 5.09994,0.17939 7.65,0.53789 4.10384,0.63759 7.84914,2.12177 11.23593,4.45253 3.38665,2.33095 5.5382,4.55224 6.45469,6.66388 0.31867,0.71726 4.55654,5.92233 4.55661,6.5996 -7e-5,1.27508 -2.08041,0.75313 -3.23579,1.86868 z m -40.85279,27.07284 c -11.39534,10.63832 -17.86995,17.5512 -19.42383,20.73867 -1.0758,2.19143 -1.61369,4.18362 -1.61367,5.97656 -2e-5,0.83674 0.11951,1.61369 0.35859,2.33086 0.67733,2.3508 2.68944,4.18361 6.03633,5.49844 2.35075,0.91642 5.33904,1.37462 8.96485,1.37461 1.55386,10e-6 3.20738,-0.0796 4.96055,-0.23906 5.93667,-0.5578 10.15013,-1.52402 12.64042,-2.89864 2.49018,-1.37459 4.07397,-3.27713 4.75137,-5.70761 0.19916,-0.79686 0.29877,-1.6535 0.29883,-2.56992 -6e-5,-2.03201 -0.47818,-4.46248 -1.43437,-7.29141 -1.39459,-4.14372 -6.57428,-9.88121 -15.53907,-17.2125 z m 36.29216,-33.35421 c -2.23132,-2.11164 -8.24223,-5.67266 -9.87575,-6.38993 -1.63366,-0.7171 -3.9446,-1.31476 -6.93282,-1.79297 -1.75318,-0.23897 -3.50631,-0.35851 -5.25937,-0.35859 -1.27505,8e-5 -2.55005,0.0598 -3.825,0.17929 -3.02818,0.35869 -5.99653,1.49423 -8.90508,3.40664 -2.90863,1.91259 -4.74144,5.7575 -5.49844,11.53477 -0.11957,0.95632 -0.17933,1.91257 -0.17929,2.86875 -4e-5,4.78131 1.57379,9.4231 4.72148,13.92539 z"
       inkscape:transform-center-x="-8.5000187"
       sodipodi:nodetypes="ccccccccscscccscccsccccccccccccccscscccccccccccccc" />
    <g
       style="font-size:144px;font-style:normal;font-weight:normal;line-height:125%;letter-spacing:0px;word-spacing:0px;fill:#000000;fill-opacity:1;stroke:none;display:inline;font-family:Sans"
       id="text4440-0"
       transform="matrix(0.85,0,0,0.85,-60.491209,55.616748)">
      <path
         d="m 198.29559,446.68704 c 14.34362,-23.57805 21.74986,-39.16397 22.21875,-46.75781 l 0,-1.33594 c -1.4e-4,-4.68739 -1.57045,-7.03114 -4.71094,-7.03125 -1.26576,1.1e-4 -2.74232,0.35167 -4.42969,1.05469 -6.56262,2.71885 -10.92199,20.74227 -13.07812,54.07031 z M 95.358086,425.41361 c 0.04686,-4.64055 1.28905,-7.49601 3.726562,-13.5664 2.437482,-6.07022 5.765602,-11.03897 9.984372,-14.90625 4.21872,-3.86709 8.19138,-6.82021 11.91797,-8.85938 3.72652,-2.03895 7.41793,-3.41004 11.07422,-4.11328 2.01558,-0.37488 4.10151,-0.56238 6.25781,-0.5625 1.68745,1.2e-4 3.44526,0.1173 5.27344,0.35156 4.07806,0.56262 7.44134,1.95715 10.08984,4.1836 2.64837,2.22667 4.66399,4.76963 6.04688,7.6289 1.38274,2.85948 2.49602,7.66416 3.33984,14.41407 0.32805,2.53133 0.49211,5.10945 0.49219,7.73437 -8e-5,4.54695 -0.46883,9.3282 -1.40625,14.34375 -1.4532,7.92193 -3.79695,16.72271 -7.03125,26.40235 -3.23444,9.67971 -4.85163,16.44142 -4.85156,20.28515 -7e-5,3.84377 0.58587,6.51564 1.75781,8.01563 0.98431,1.26563 2.57806,1.89844 4.78125,1.89843 0.4218,10e-6 0.86712,-0.0234 1.33594,-0.0703 2.90617,-0.28124 5.77726,-1.44139 8.61328,-3.48047 2.83585,-2.03905 10.44131,-11.30857 22.81641,-27.80859 1.12489,-24.37494 2.43739,-39.83195 3.9375,-46.37109 1.49989,-6.53897 3.12879,-11.61319 4.88671,-15.22266 1.7577,-3.60927 3.66786,-6.3163 5.73047,-8.12109 2.06238,-1.80458 4.2655,-3.15224 6.60938,-4.04297 1.78112,-0.65614 3.46862,-0.98426 5.0625,-0.98438 0.51549,1.2e-4 1.03112,0.0236 1.54687,0.0703 2.01549,0.28137 4.11315,1.23059 6.29297,2.84766 2.17955,1.6173 3.64439,3.78527 4.39453,6.50391 0.51548,1.8751 0.7733,4.07822 0.77344,6.60937 -1.4e-4,1.1251 -0.047,2.29697 -0.14062,3.51563 -0.32827,4.03134 -1.3478,8.60165 -3.0586,13.71093 -1.71107,5.10946 -10.76966,20.48444 -27.17578,46.125 2.62488,13.07815 4.94519,20.64846 6.96094,22.71094 1.87488,1.92189 4.05456,2.88282 6.53906,2.88281 l 0.49219,0 c 2.67174,-0.14061 5.60143,-1.30077 8.78906,-3.48046 3.18736,-2.17968 7.39439,-6.56248 12.62109,-13.14844 5.22641,-6.58591 9.66781,-13.91012 13.32422,-21.97266 3.65609,-8.06244 6.49202,-14.92962 8.50782,-20.60156 2.62569,-6.22511 12.0906,-13.52259 1.72265,19.05469 -5.60173,13.78128 -12.53922,25.05471 -20.8125,33.82031 -8.27358,8.76563 -14.63685,13.57031 -19.08984,14.41406 -2.20326,0.42188 -4.28919,0.63282 -6.25781,0.63281 -2.1095,10e-6 -4.10169,-0.23437 -5.97657,-0.70312 -3.65636,-0.89062 -6.48058,-3.14062 -8.47265,-6.75 -1.9923,-3.60936 -3.80871,-9.51561 -5.44922,-17.71875 -8.39073,9.93752 -14.66025,16.58204 -18.8086,19.93359 -4.14852,3.35157 -8.68367,5.33204 -13.60546,5.94141 -1.12508,0.14062 -2.2032,0.21094 -3.23438,0.21094 -3.42194,0 -6.211,-0.79688 -8.36719,-2.39063 -2.85943,-2.01562 -4.57037,-4.7578 -5.13281,-8.22656 -0.28131,-1.82811 -0.42193,-3.77342 -0.42187,-5.83594 -6e-5,-1.92185 0.11713,-3.96091 0.35156,-6.11719 0.51557,-4.49997 1.88666,-10.17184 4.11328,-17.01562 2.2265,-6.8437 4.25384,-14.32026 6.08203,-22.42969 1.40618,-6.18743 2.10931,-11.8593 2.10938,-17.01562 -7e-5,-1.59367 -0.0704,-3.14055 -0.21094,-4.64063 -0.56257,-6.28116 -1.92194,-11.39053 -4.07813,-15.32812 -2.06256,-3.60928 -5.50787,-5.41396 -10.33593,-5.41407 l -1.05469,0 c -5.39068,0.28136 -10.18364,1.57042 -14.37891,3.86719 -4.19535,2.29698 -7.54691,4.94541 -10.05469,7.94531 -2.50784,3.00009 -4.74611,6.98447 -6.71484,11.95313 -1.5469,3.84383 -3.03461,6.20654 -3.03459,10.65959 -5.59795,2.22052 -9.199784,2.74897 -9.199784,-1.76897 z"
         style="font-style:oblique;font-variant:normal;font-stretch:normal;font-family:'That\'s Font Folks!';-inkscape-font-specification:'That\'s Font Folks! Oblique';fill:#000000;fill-opacity:1"
         id="path4445-9"
         inkscape:connector-curvature="0"
         sodipodi:nodetypes="cccccccscccccccccccccccccccsccccccccccsccccccccscccccscccccccccccccccc" />
    </g>
    <g
       transform="matrix(0.45228494,0.71967933,0.71967933,-0.45228494,-60.339419,54.068538)"
       style="font-size:40px;font-style:normal;font-weight:normal;line-height:125%;letter-spacing:0px;word-spacing:0px;fill:#000000;fill-opacity:1;stroke:none;display:inline;font-family:Sans"
       id="text4453-4">
      <path
         d="m 525.8065,-40.48661 c -0.75011,1.195414 11.23595,-4.356026 -24.94322,39.78744068 11.05555,2.24209402 11.32493,1.13789836 23.95291,6.27797582 3.65618,0.65626 1.97336,5.6145775 4.31719,5.6145675 l 0.84375,0 c 13.29534,4.83027 35.57894,9.301505 13.8786,8.938786 -3.7032,0.70313 1.76971,-14.9165749 -15.84736,-0.220009 -0.25202,0.210241 5.6896,-5.698784 5.36155,-5.745684 -3.84382,-0.0469 -5.84187,-0.758539 -11.08411,-2.718919 -5.62656,-2.1040999 -8.03259,-3.8076763 -25.46991,-5.1847798 -0.17735,2.26154 -5.58101,8.7509518 -8.11222,10.4853248 -2.53128,1.734374 -5.27347,2.906254 -8.22656,3.515624 -1.5469,0.32813 -3.09378,0.49219 -4.64063,0.49219 -1.45314,0 -2.88283,-0.14063 -4.28906,-0.42188 -3.04689,-0.5625 -5.33204,-1.69921 -6.85547,-3.410154 -1.52345,-1.710943 -2.44923,-3.808593 -2.77734,-6.292973 -0.0938,-0.42187 -0.14064,-0.8437401 -0.14063,-1.2656301 -1e-5,-2.06248 0.70312,-4.19529 2.10938,-6.39843 1.68749,-2.67185996 3.78514,-4.40623 6.29297,-5.20313 2.50779,-0.79685 4.95701,-1.24216 7.34765,-1.33594 l 0.35157,0 c 2.43747,3e-5 8.70979,-0.7778602 14.3817,1.0502399 25.49689,-30.8572688 16.0291,-18.9850238 29.34172,-41.3423698 4.91501,-2.199414 2.17828,-8.162907 4.20752,3.37775 z M 489.2367,4.7264182 c -4.3594,-1.07811 -9.65023,0.1154057 -11.00958,-0.072104 -0.46878,-0.0469 -0.93753,-0.0703 -1.40625,-0.0703 -0.84377,2e-5 -1.66409,0.0938 -2.46094,0.28125 -1.26564,0.37502 -2.22658,0.93752 -2.88281,1.6875 -0.37502,0.46877 -0.56252,0.96095 -0.5625,1.47657 -2e-5,0.37501 0.11717,0.79688 0.35156,1.26562 0.51561,1.0312598 1.61717,1.7812598 3.30469,2.2499998 0.7031,0.18751 1.4531,0.28126 2.25,0.28125 1.03122,10e-6 2.13279,-0.16405 3.30469,-0.49219 2.01559,-0.60936 5.4152,-4.1333915 7.85273,-6.7115315 z"
         style="font-size:144px;font-style:oblique;font-variant:normal;font-stretch:normal;font-family:'That\'s Font Folks!';-inkscape-font-specification:'That\'s Font Folks! Oblique';fill:#000000;fill-opacity:1"
         id="path4458-8"
         inkscape:connector-curvature="0"
         sodipodi:nodetypes="cccsccscscccscsccccccccccccccccccccc" />
    </g>
    <path
       inkscape:connector-curvature="0"
       id="path4411-4-82"
       style="font-size:144px;font-style:oblique;font-variant:normal;font-weight:normal;font-stretch:normal;line-height:125%;letter-spacing:0px;word-spacing:0px;fill:#000000;fill-opacity:1;stroke:none;display:inline;font-family:'That\'s Font Folks!';-inkscape-font-specification:'That\'s Font Folks! Oblique'"
       d="m 261.5568,418.69653 c 3.4265,-10.63822 5.93665,-17.61086 7.53047,-20.91797 1.59368,-3.30695 3.49622,-6.07609 5.70761,-8.30743 2.21126,-2.23115 4.65169,-3.88467 7.3213,-4.96054 2.58975,-1.03584 5.06007,-1.55381 7.41094,-1.55391 l 0.23906,0 c 2.43037,0.0399 4.53213,0.65752 6.30526,1.85274 1.77296,1.1954 3.15752,2.58993 4.15372,4.18359 0.99599,1.59384 1.59364,3.82508 1.79297,6.69375 0.0397,0.87665 0.0597,1.73328 0.0598,2.56992 -10e-5,2.07195 -0.15947,4.14383 -0.47812,6.21563 -0.47823,2.9485 -1.41455,5.74753 -2.80899,8.39707 -1.39463,2.64967 -3.72548,4.92076 -6.99257,6.81328 -3.26728,1.89263 -6.94286,3.28716 -11.02676,4.1836 -4.08406,0.89653 -8.7159,1.66352 -13.89551,2.30097 l -9.92109,36.39726 c 2.66947,1.7133 5.1099,3.01818 7.32128,3.91465 2.21127,0.8965 4.28314,1.63361 6.21563,2.21133 1.93235,0.57774 3.87473,1.02598 5.82715,1.34473 1.15539,0.19923 2.41047,0.29883 3.76523,0.29883 0.91633,0 1.8925,-0.0598 2.92852,-0.1793 2.51007,-0.19921 4.4923,-0.6873 5.94668,-1.46426 1.45421,-0.77694 3.038,-1.80292 4.75137,-3.07793 1.71318,-1.27499 2.87862,-2.10174 3.49628,-2.48027 0.61749,-0.37851 1.2251,-0.56776 1.82286,-0.56778 0.59755,2e-5 1.0956,0.27892 1.49414,0.83673 0.2788,0.47813 0.41825,1.11563 0.41836,1.9125 l 0,0.65741 c -0.11963,1.11564 -0.83682,2.4006 -2.15157,3.85489 -1.31494,1.4543 -3.24735,2.89863 -5.79726,4.33301 -2.55009,1.43437 -5.13993,2.3707 -7.76953,2.80898 -1.99227,0.31875 -4.18367,0.47812 -6.57422,0.47812 -0.75711,0 -1.53406,-0.0199 -2.33086,-0.0598 -3.34695,-0.11953 -6.33522,-0.60762 -8.96484,-1.46426 -2.62976,-0.85664 -7.5903,-3.45644 -14.88164,-7.79942 -1.75318,2.51017 -4.15376,4.66173 -7.20176,6.45469 -3.04809,1.79297 -7.73968,2.78906 -14.0748,2.98829 l -1.55391,0 c -5.53831,0 -9.36331,-0.9961 -11.475,-2.98829 -2.31096,-2.1914 -3.64572,-4.16366 -4.0043,-5.91679 -0.23907,-0.99609 -0.35861,-2.05194 -0.35859,-3.16758 -2e-5,-0.79686 0.0597,-1.6535 0.1793,-2.56992 0.27888,-2.07186 1.08572,-4.08397 2.4205,-6.03633 1.33475,-1.95233 3.36678,-3.4365 6.0961,-4.45254 2.72926,-1.01599 5.6279,-1.54392 8.6959,-1.58379 l 0.59765,0 c 2.82888,3e-5 5.39879,0.27894 7.70976,0.83672 2.43043,0.59768 6.17574,2.72932 11.23594,6.39492 l 8.48672,-31.73554 -2.27109,0 c -3.8649,5e-5 -7.21177,-0.17925 -10.04063,-0.5379 -3.38676,-0.39839 -6.30531,-1.37455 -8.75566,-2.92851 -2.45043,-1.55385 -4.40277,-3.3767 -5.85703,-5.46855 -1.45433,-2.09174 -2.3807,-4.43256 -2.7791,-7.02247 -0.19925,-1.03587 -0.29886,-2.17141 -0.29883,-3.40663 -3e-5,-1.75306 -0.25005,-3.7054 0.10857,-5.85704 3.25853,-0.0293 6.57558,-6.33619 7.11209,1.33925 -0.27894,1.07586 0.011,2.34637 0.011,3.38224 -5e-5,1.15554 0.15933,2.29108 0.47812,3.40664 0.51793,2.19147 1.53394,4.06413 3.04804,5.61797 1.51402,1.55396 3.90465,2.62975 7.17188,3.22734 2.35073,0.47818 5.49838,0.71724 9.44297,0.71719 1.55384,5e-5 3.20736,-0.0398 4.96055,-0.11953 z m 7.41094,-0.47813 c 6.97258,-0.99603 11.74386,-1.85267 14.31386,-2.56992 2.56984,-0.71713 4.68156,-1.77298 6.33516,-3.16758 1.65343,-1.39446 3.03799,-3.3468 4.15371,-5.85703 1.11553,-2.51008 1.75303,-5.23938 1.9125,-8.18789 l 0,-0.89649 c -9e-5,-2.47022 -0.53798,-4.2632 -1.61367,-5.3789 -1.23525,-1.19523 -2.76923,-1.83273 -4.60196,-1.9125 l -0.53788,0 c -1.59384,9e-5 -3.06806,0.25907 -4.42266,0.77695 -1.4743,0.59774 -2.99832,1.57391 -4.57207,2.92852 -1.57391,1.35477 -2.95848,3.33699 -4.15371,5.94667 -1.19539,2.60985 -3.46648,8.71589 -6.81328,18.31817 z m -23.24883,46.13907 c -2.94848,-1.91249 -5.25941,-3.32695 -6.93282,-4.24336 -1.67347,-0.9164 -3.24729,-1.53397 -4.72147,-1.85274 -0.55785,-0.0796 -1.15551,-0.11951 -1.79298,-0.11953 -1.1555,2e-5 -2.53011,0.17932 -4.12382,0.53789 -2.4305,0.55783 -4.04417,1.51408 -4.84102,2.86875 -0.518,0.83673 -0.77697,1.71329 -0.77696,2.62969 -1e-5,0.59767 0.11951,1.23517 0.3586,1.9125 0.55779,1.6336 2.33084,2.74922 5.31914,3.34687 1.19529,0.23907 2.41052,0.3586 3.6457,0.35859 1.75309,10e-6 3.54607,-0.25897 5.37891,-0.77695 3.02808,-0.8367 5.85699,-2.39061 8.48672,-4.66171 z"
       sodipodi:nodetypes="ccscccccccccsccccccscccccccccccscccscsccccsscsccccccccccccccccccccscccccccscccccccccccccc" />
    <g
       style="font-size:144px;font-style:oblique;font-variant:normal;font-weight:normal;font-stretch:normal;line-height:125%;letter-spacing:0px;word-spacing:0px;fill:#000000;fill-opacity:1;stroke:none;display:inline;font-family:'That\'s Font Folks!';-inkscape-font-specification:'That\'s Font Folks! Oblique'"
       id="text4514-4"
       transform="matrix(0.47566437,0.58963245,-0.49142027,0.61098084,310.16942,-1.6836114)">
      <path
         d="m 261.06261,402.19351 c 8.17439,-11.33501 25.41897,-38.14553 19.37971,-39.10642 -10.29008,6.11391 -24.88327,34.03254 -19.37971,39.10642 z m -15.64633,53.19578 c -0.98437,1.52344 -2.7249,9.62026 -3.9483,9.31255 -1.88475,-0.47406 -1.38281,0.28125 -1.89844,0.28125 -0.42187,0 -6.20172,3.41165 -1.05469,-0.21094 -0.60937,-0.23437 1.77643,-2.05588 1.6358,-2.94651 l 0,-0.0703 c 10e-6,-1.5 3.55897,-12.40883 7.35584,-31.4401 1.96875,-9.86716 8.80612,-10.53504 5.16478,-21.91922 -4.8914,-15.29236 16.0944,-50.10429 29.33712,-51.96805 19.46829,-2.73994 -3.6521,31.32596 -9.03454,39.81116 -14.99984,21.12868 -25.04395,49.71931 -27.55757,59.15016 z"
         id="path4519-5"
         inkscape:connector-curvature="0"
         sodipodi:nodetypes="ccccsccsccsscc"
         style="fill:#000000;fill-opacity:1" />
    </g>
    <path
       style="fill:#000000;stroke:#000000;stroke-width:2.75570010999999980;stroke-linecap:round;stroke-linejoin:round;stroke-miterlimit:4;stroke-opacity:1;stroke-dasharray:none;display:inline;fill-opacity:1"
       d="m 293.91584,350.89776 -23.3498,43.97154"
       id="path3121-5"
       inkscape:connector-curvature="0"
       sodipodi:nodetypes="cc" />
    <path
       style="fill:#000000;stroke:#000000;stroke-width:2.75570010999999980;stroke-linecap:round;stroke-linejoin:round;stroke-miterlimit:4;stroke-opacity:1;stroke-dasharray:none;display:inline;fill-opacity:1"
       d="m 338.54084,355.85461 -23.34979,43.97155"
       id="path3121-2-27"
       inkscape:connector-curvature="0"
       sodipodi:nodetypes="cc" />
    <path
       style="fill:#000000;stroke:#000000;stroke-width:2.75570010999999980;stroke-linecap:round;stroke-linejoin:round;stroke-miterlimit:4;stroke-opacity:1;stroke-dasharray:none;display:inline;fill-opacity:1"
       d="m 318.20155,353.17455 -23.3498,43.97155"
       id="path3121-2-3-6"
       inkscape:connector-curvature="0"
       sodipodi:nodetypes="cc" />
    <path
       style="fill:#000000;stroke:#000000;stroke-width:2.75570010999999980;stroke-linecap:round;stroke-linejoin:round;stroke-miterlimit:4;stroke-opacity:1;stroke-dasharray:none;display:inline;fill-opacity:1"
       d="m 397.79193,357.8424 -29.75156,53.10794"
       id="path3121-2-2-1"
       inkscape:connector-curvature="0"
       sodipodi:nodetypes="cc" />
    <path
       style="fill:#000000;fill-opacity:1;stroke:#000000;stroke-width:0.50999998999999996;stroke-linecap:butt;stroke-linejoin:miter;stroke-miterlimit:4;stroke-opacity:1;stroke-dasharray:none;display:inline"
       d="m 343.36826,407.16306 23.32662,-47.33117 -1.97405,-3.29714 -25.19985,49.1942 z"
       id="path3962-4"
       inkscape:connector-curvature="0"
       sodipodi:nodetypes="ccccc" />
    <path
       style="fill:#000000;fill-opacity:1;stroke:#000000;stroke-width:0;stroke-linecap:butt;stroke-linejoin:miter;stroke-miterlimit:4;stroke-opacity:1;stroke-dasharray:none;display:inline"
       d="m 24.812371,414.6246 -4.92765,-0.69605 -1.10695,9.8032 -2.99889,1.23271 -0.19624,2.53273 -1.18052,0.26689 -1.18062,12.55746 1.39528,0.64398 -0.21466,2.03924 c 0,0 -0.2998,0.67615 2.36123,2.03925 2.53604,1.29906 3.46977,1.39066 3.46977,1.39066 l -0.69224,3.96926 0.73828,0.34422 -0.18862,0.97707 1.01962,0.26832 0.23577,-1.01502 0.76051,0.0897 0.59873,-4.20614 c 0,0 1.59957,-0.01 3.61583,-0.24878 2.01626,-0.23919 3.42722,-1.24889 3.42722,-1.24889 0.34882,-1.82459 0.42471,-2.06148 0.42471,-2.06148 l 1.18713,-0.4933 1.18061,-13.65028 -1.28794,-0.64397 0.21465,-2.79054 -2.57588,-1.5026 0.85862,-9.23028 z"
       id="path4108-2"
       inkscape:connector-curvature="0"
       sodipodi:nodetypes="cccccccccscccccccczccccccccc" />
  </g>
</svg>
