<?xml version="1.0" encoding="UTF-8" standalone="no"?>
<!-- Created with Inkscape (http://www.inkscape.org/) -->

<svg
   xmlns:dc="http://purl.org/dc/elements/1.1/"
   xmlns:cc="http://creativecommons.org/ns#"
   xmlns:rdf="http://www.w3.org/1999/02/22-rdf-syntax-ns#"
   xmlns:svg="http://www.w3.org/2000/svg"
   xmlns="http://www.w3.org/2000/svg"
   xmlns:sodipodi="http://sodipodi.sourceforge.net/DTD/sodipodi-0.dtd"
   xmlns:inkscape="http://www.inkscape.org/namespaces/inkscape"
   width="454.13184"
   height="221.66783"
   id="svg4061"
   version="1.1"
   inkscape:version="0.48.5 r10040"
   sodipodi:docname="New document 6">
  <defs
     id="defs4063" />
  <sodipodi:namedview
     id="base"
     pagecolor="#ffffff"
     bordercolor="#666666"
     borderopacity="1.0"
     inkscape:pageopacity="0.0"
     inkscape:pageshadow="2"
     inkscape:zoom="0.98994949"
     inkscape:cx="203.43204"
     inkscape:cy="110.35582"
     inkscape:document-units="px"
     inkscape:current-layer="layer1"
     showgrid="false"
     fit-margin-top="0"
     fit-margin-left="0"
     fit-margin-right="0"
     fit-margin-bottom="0"
     inkscape:window-width="994"
     inkscape:window-height="592"
     inkscape:window-x="26"
     inkscape:window-y="26"
     inkscape:window-maximized="0" />
  <metadata
     id="metadata4066">
    <rdf:RDF>
      <cc:Work
         rdf:about="">
        <dc:format>image/svg+xml</dc:format>
        <dc:type
           rdf:resource="http://purl.org/dc/dcmitype/StillImage" />
        <dc:title></dc:title>
      </cc:Work>
    </rdf:RDF>
  </metadata>
  <g
     inkscape:label="Layer 1"
     inkscape:groupmode="layer"
     id="layer1"
     transform="translate(-170.0625,-401.51935)">
    <path
       style="fill:#000000;stroke:#000000;stroke-width:2.11500001;stroke-linecap:butt;stroke-linejoin:miter;stroke-miterlimit:4;stroke-opacity:1;stroke-dasharray:none;display:inline"
       d="m 552.64011,621.62117 -5.69371,0 -0.31119,-188.6104 -65.1929,-6.29911 c 0,0 -1.6018,-0.15911 -1.46293,-2.32001 0.13887,-2.16091 1.56753,-2.05986 1.56753,-2.05986 l 131.33143,12.66791 c 0,0 1.86776,0.42203 1.67218,2.26053 -0.19558,1.8385 -1.60449,1.98925 -1.60449,1.98925 l -61.06347,-5.7184 z"
       id="path5349"
       inkscape:connector-curvature="0"
       sodipodi:nodetypes="cccczcczccc"
       inkscape:export-filename="C:\Users\Claudia\Pictures\Inkscape files\path4108.png"
       inkscape:export-xdpi="90"
       inkscape:export-ydpi="90" />
    <path
       inkscape:connector-curvature="0"
       id="path4409-7"
       style="font-size:144px;font-style:oblique;font-variant:normal;font-weight:normal;font-stretch:normal;line-height:125%;letter-spacing:0px;word-spacing:0px;fill:#000000;fill-opacity:1;stroke:none;display:inline;font-family:'That\'s Font Folks!';-inkscape-font-specification:'That\'s Font Folks! Oblique'"
       d="m 422.96793,468.61133 c -2.10947,1.96883 -16.84343,6.95986 -41.17148,26.08478 11.81243,9.32817 18.56243,16.73442 20.25,22.21875 1.31242,4.26566 1.96867,7.94534 1.96875,11.03906 -8e-5,0.89065 -0.0469,1.7344 -0.14062,2.53125 -0.51571,3.56252 -1.52352,6.63283 -3.02344,9.21094 -1.50007,2.57814 -3.86726,4.92188 -7.10156,7.03125 -3.23444,2.10938 -8.13288,3.60938 -14.69532,4.5 -3.70317,0.51563 -7.24223,0.77344 -10.61718,0.77344 -2.53129,0 -4.94535,-0.16406 -7.24219,-0.49219 -5.39066,-0.65625 -9.80862,-2.02734 -13.25391,-4.11328 -3.44533,-2.08593 -5.70704,-4.51171 -6.78515,-7.27734 -0.93752,-2.29686 -1.40627,-4.64061 -1.40625,-7.03125 -2e-5,-0.42186 0.0234,-0.84373 0.0703,-1.26563 0.18748,-2.81248 1.31248,-6.33982 3.375,-10.58203 2.06248,-4.24215 10.61716,-13.30074 25.66406,-27.17578 -5.57816,-8.15619 -8.36722,-15.07024 -8.36719,-20.74219 -3e-5,-0.51554 0.0468,-1.05461 0.14063,-1.61719 0.56246,-5.90616 1.83981,-10.75772 3.83203,-14.55468 1.99215,-3.79678 5.14449,-7.00771 9.45703,-9.63282 4.31245,-2.62489 8.88276,-4.17176 13.71094,-4.64062 1.82806,-0.14052 3.65618,-0.21083 5.48437,-0.21094 2.99993,1.1e-4 5.99993,0.21105 9,0.63281 4.82805,0.75011 9.23429,2.4962 13.21875,5.23828 3.98429,2.74229 6.51553,5.35557 7.59375,7.83985 0.37491,0.84384 5.36063,6.96745 5.36072,7.76424 -9e-5,1.50009 -2.44754,0.88604 -3.80682,2.19845 z m -48.0621,31.85041 c -13.40629,12.51566 -21.02347,20.64846 -22.85157,24.39843 -1.26565,2.57815 -1.89846,4.9219 -1.89843,7.03125 -3e-5,0.9844 0.1406,1.89846 0.42187,2.74219 0.79685,2.76564 3.16404,4.92189 7.10156,6.46875 2.76559,1.07814 6.28122,1.6172 10.54688,1.61719 1.82808,10e-6 3.77339,-0.0937 5.83594,-0.28125 6.98432,-0.65624 11.94134,-1.79296 14.87109,-3.41016 2.92962,-1.61717 4.7929,-3.85545 5.58984,-6.71484 0.23431,-0.93748 0.3515,-1.94529 0.35157,-3.02344 -7e-5,-2.3906 -0.56257,-5.24997 -1.6875,-8.57812 -1.64069,-4.87497 -7.73444,-11.62496 -18.28125,-20.25 z m 42.69665,-39.24025 c -2.62508,-2.48428 -9.69674,-6.67372 -11.61853,-7.51757 -1.92195,-0.84365 -4.6407,-1.54677 -8.15625,-2.10937 -2.06257,-0.28115 -4.12507,-0.42178 -6.1875,-0.42188 -1.50006,1e-4 -3.00006,0.0704 -4.5,0.21094 -3.56256,0.42198 -7.05474,1.75791 -10.47656,4.00781 -3.42192,2.2501 -5.57817,6.77353 -6.46875,13.57032 -0.14067,1.12508 -0.21098,2.25008 -0.21094,3.375 -4e-5,5.62507 1.85152,11.086 5.55469,16.38281 z"
       inkscape:transform-center-x="-10"
       sodipodi:nodetypes="ccccccccscscccscccsccccccccccccccscscccccccccccccc"
       inkscape:export-filename="C:\Users\Claudia\Pictures\Inkscape files\path4108.png"
       inkscape:export-xdpi="90"
       inkscape:export-ydpi="90" />
    <g
       style="font-size:144px;font-style:normal;font-weight:normal;line-height:125%;letter-spacing:0px;word-spacing:0px;fill:#000000;fill-opacity:1;stroke:none;display:inline;font-family:Sans"
       id="text4440"
       transform="translate(83.393624,55.768761)"
       inkscape:export-filename="C:\Users\Claudia\Pictures\Inkscape files\path4108.png"
       inkscape:export-xdpi="90"
       inkscape:export-ydpi="90">
      <path
         d="m 198.29559,446.68704 c 14.34362,-23.57805 21.74986,-39.16397 22.21875,-46.75781 l 0,-1.33594 c -1.4e-4,-4.68739 -1.57045,-7.03114 -4.71094,-7.03125 -1.26576,1.1e-4 -2.74232,0.35167 -4.42969,1.05469 -6.56262,2.71885 -10.92199,20.74227 -13.07812,54.07031 z M 95.358086,425.41361 c 0.04686,-4.64055 1.28905,-7.49601 3.726562,-13.5664 2.437482,-6.07022 5.765602,-11.03897 9.984372,-14.90625 4.21872,-3.86709 8.19138,-6.82021 11.91797,-8.85938 3.72652,-2.03895 7.41793,-3.41004 11.07422,-4.11328 2.01558,-0.37488 4.10151,-0.56238 6.25781,-0.5625 1.68745,1.2e-4 3.44526,0.1173 5.27344,0.35156 4.07806,0.56262 7.44134,1.95715 10.08984,4.1836 2.64837,2.22667 4.66399,4.76963 6.04688,7.6289 1.38274,2.85948 2.49602,7.66416 3.33984,14.41407 0.32805,2.53133 0.49211,5.10945 0.49219,7.73437 -8e-5,4.54695 -0.46883,9.3282 -1.40625,14.34375 -1.4532,7.92193 -3.79695,16.72271 -7.03125,26.40235 -3.23444,9.67971 -4.85163,16.44142 -4.85156,20.28515 -7e-5,3.84377 0.58587,6.51564 1.75781,8.01563 0.98431,1.26563 2.57806,1.89844 4.78125,1.89843 0.4218,10e-6 0.86712,-0.0234 1.33594,-0.0703 2.90617,-0.28124 5.77726,-1.44139 8.61328,-3.48047 2.83585,-2.03905 10.44131,-11.30857 22.81641,-27.80859 1.12489,-24.37494 2.43739,-39.83195 3.9375,-46.37109 1.49989,-6.53897 3.12879,-11.61319 4.88671,-15.22266 1.7577,-3.60927 3.66786,-6.3163 5.73047,-8.12109 2.06238,-1.80458 4.2655,-3.15224 6.60938,-4.04297 1.78112,-0.65614 3.46862,-0.98426 5.0625,-0.98438 0.51549,1.2e-4 1.03112,0.0236 1.54687,0.0703 2.01549,0.28137 4.11315,1.23059 6.29297,2.84766 2.17955,1.6173 3.64439,3.78527 4.39453,6.50391 0.51548,1.8751 0.7733,4.07822 0.77344,6.60937 -1.4e-4,1.1251 -0.047,2.29697 -0.14062,3.51563 -0.32827,4.03134 -1.3478,8.60165 -3.0586,13.71093 -1.71107,5.10946 -10.76966,20.48444 -27.17578,46.125 2.62488,13.07815 4.94519,20.64846 6.96094,22.71094 1.87488,1.92189 4.05456,2.88282 6.53906,2.88281 l 0.49219,0 c 2.67174,-0.14061 5.60143,-1.30077 8.78906,-3.48046 3.18736,-2.17968 7.39439,-6.56248 12.62109,-13.14844 5.22641,-6.58591 9.66781,-13.91012 13.32422,-21.97266 3.65609,-8.06244 6.49202,-14.92962 8.50782,-20.60156 2.62569,-6.22511 12.0906,-13.52259 1.72265,19.05469 -5.60173,13.78128 -12.53922,25.05471 -20.8125,33.82031 -8.27358,8.76563 -14.63685,13.57031 -19.08984,14.41406 -2.20326,0.42188 -4.28919,0.63282 -6.25781,0.63281 -2.1095,10e-6 -4.10169,-0.23437 -5.97657,-0.70312 -3.65636,-0.89062 -6.48058,-3.14062 -8.47265,-6.75 -1.9923,-3.60936 -3.80871,-9.51561 -5.44922,-17.71875 -8.39073,9.93752 -14.66025,16.58204 -18.8086,19.93359 -4.14852,3.35157 -8.68367,5.33204 -13.60546,5.94141 -1.12508,0.14062 -2.2032,0.21094 -3.23438,0.21094 -3.42194,0 -6.211,-0.79688 -8.36719,-2.39063 -2.85943,-2.01562 -4.57037,-4.7578 -5.13281,-8.22656 -0.28131,-1.82811 -0.42193,-3.77342 -0.42187,-5.83594 -6e-5,-1.92185 0.11713,-3.96091 0.35156,-6.11719 0.51557,-4.49997 1.88666,-10.17184 4.11328,-17.01562 2.2265,-6.8437 4.25384,-14.32026 6.08203,-22.42969 1.40618,-6.18743 2.10931,-11.8593 2.10938,-17.01562 -7e-5,-1.59367 -0.0704,-3.14055 -0.21094,-4.64063 -0.56257,-6.28116 -1.92194,-11.39053 -4.07813,-15.32812 -2.06256,-3.60928 -5.50787,-5.41396 -10.33593,-5.41407 l -1.05469,0 c -5.39068,0.28136 -10.18364,1.57042 -14.37891,3.86719 -4.19535,2.29698 -7.54691,4.94541 -10.05469,7.94531 -2.50784,3.00009 -4.74611,6.98447 -6.71484,11.95313 -1.5469,3.84383 -3.03461,6.20654 -3.03459,10.65959 -5.59795,2.22052 -9.199784,2.74897 -9.199784,-1.76897 z"
         style="font-style:oblique;font-variant:normal;font-stretch:normal;font-family:'That\'s Font Folks!';-inkscape-font-specification:'That\'s Font Folks! Oblique'"
         id="path4445"
         inkscape:connector-curvature="0"
         sodipodi:nodetypes="cccccccscccccccccccccccccccsccccccccccsccccccccscccccscccccccccccccccc" />
    </g>
    <g
       transform="matrix(0.53209993,0.84668156,0.84668156,-0.53209993,83.572194,53.947331)"
       style="font-size:40px;font-style:normal;font-weight:normal;line-height:125%;letter-spacing:0px;word-spacing:0px;fill:#000000;fill-opacity:1;stroke:none;display:inline;font-family:Sans"
       id="text4453"
       inkscape:export-filename="C:\Users\Claudia\Pictures\Inkscape files\path4108.png"
       inkscape:export-xdpi="90"
       inkscape:export-ydpi="90">
      <path
         d="m 525.8065,-40.48661 c -0.75011,1.195414 11.23595,-4.356026 -24.94322,39.78744068 11.05555,2.24209402 11.32493,1.13789836 23.95291,6.27797582 3.65618,0.65626 1.97336,5.6145775 4.31719,5.6145675 l 0.84375,0 c 13.29534,4.83027 35.57894,9.301505 13.8786,8.938786 -3.7032,0.70313 1.76971,-14.9165749 -15.84736,-0.220009 -0.25202,0.210241 5.6896,-5.698784 5.36155,-5.745684 -3.84382,-0.0469 -5.84187,-0.758539 -11.08411,-2.718919 -5.62656,-2.1040999 -8.03259,-3.8076763 -25.46991,-5.1847798 -0.17735,2.26154 -5.58101,8.7509518 -8.11222,10.4853248 -2.53128,1.734374 -5.27347,2.906254 -8.22656,3.515624 -1.5469,0.32813 -3.09378,0.49219 -4.64063,0.49219 -1.45314,0 -2.88283,-0.14063 -4.28906,-0.42188 -3.04689,-0.5625 -5.33204,-1.69921 -6.85547,-3.410154 -1.52345,-1.710943 -2.44923,-3.808593 -2.77734,-6.292973 -0.0938,-0.42187 -0.14064,-0.8437401 -0.14063,-1.2656301 -1e-5,-2.06248 0.70312,-4.19529 2.10938,-6.39843 1.68749,-2.67185996 3.78514,-4.40623 6.29297,-5.20313 2.50779,-0.79685 4.95701,-1.24216 7.34765,-1.33594 l 0.35157,0 c 2.43747,3e-5 8.70979,-0.7778602 14.3817,1.0502399 25.49689,-30.8572688 16.0291,-18.9850238 29.34172,-41.3423698 4.91501,-2.199414 2.17828,-8.162907 4.20752,3.37775 z M 489.2367,4.7264182 c -4.3594,-1.07811 -9.65023,0.1154057 -11.00958,-0.072104 -0.46878,-0.0469 -0.93753,-0.0703 -1.40625,-0.0703 -0.84377,2e-5 -1.66409,0.0938 -2.46094,0.28125 -1.26564,0.37502 -2.22658,0.93752 -2.88281,1.6875 -0.37502,0.46877 -0.56252,0.96095 -0.5625,1.47657 -2e-5,0.37501 0.11717,0.79688 0.35156,1.26562 0.51561,1.0312598 1.61717,1.7812598 3.30469,2.2499998 0.7031,0.18751 1.4531,0.28126 2.25,0.28125 1.03122,10e-6 2.13279,-0.16405 3.30469,-0.49219 2.01559,-0.60936 5.4152,-4.1333915 7.85273,-6.7115315 z"
         style="font-size:144px;font-style:oblique;font-variant:normal;font-stretch:normal;font-family:'That\'s Font Folks!';-inkscape-font-specification:'That\'s Font Folks! Oblique'"
         id="path4458"
         inkscape:connector-curvature="0"
         sodipodi:nodetypes="cccsccscscccscsccccccccccccccccccccc" />
    </g>
    <path
       inkscape:connector-curvature="0"
       id="path4411-4"
       style="font-size:144px;font-style:oblique;font-variant:normal;font-weight:normal;font-stretch:normal;line-height:125%;letter-spacing:0px;word-spacing:0px;fill:#000000;fill-opacity:1;stroke:none;display:inline;font-family:'That\'s Font Folks!';-inkscape-font-specification:'That\'s Font Folks! Oblique'"
       d="m 462.27363,482.92144 c 4.03117,-12.51555 6.98429,-20.71866 8.85937,-24.60938 1.87492,-3.89053 4.1132,-7.14834 6.71484,-9.77344 2.60148,-2.62489 5.47257,-4.5702 8.61329,-5.83593 3.04677,-1.21864 5.95302,-1.82802 8.71875,-1.82813 l 0.28125,0 c 2.85926,0.047 5.33192,0.77355 7.41796,2.17969 2.08583,1.40636 3.71473,3.04698 4.88672,4.92187 1.17176,1.87511 1.87488,4.5001 2.10938,7.875 0.0467,1.03135 0.0702,2.03916 0.0703,3.02344 -1.2e-4,2.43759 -0.18762,4.87509 -0.5625,7.3125 -0.56262,3.46883 -1.66418,6.7618 -3.30469,9.87891 -1.64074,3.11726 -4.38292,5.78913 -8.22656,8.01562 -3.84385,2.22663 -8.16807,3.86725 -12.97266,4.92188 -4.80477,1.05475 -10.25399,1.95709 -16.34765,2.70703 l -11.67188,42.82031 c 3.14056,2.01564 6.01165,3.5508 8.61328,4.60547 2.60149,1.0547 5.03899,1.92189 7.3125,2.60156 2.27336,0.6797 4.55851,1.20704 6.85547,1.58203 1.35929,0.23439 2.83585,0.35157 4.42969,0.35157 1.07803,0 2.22647,-0.0703 3.44531,-0.21094 2.95303,-0.23437 5.28506,-0.80859 6.9961,-1.72266 1.71083,-0.91405 3.57411,-2.12108 5.58984,-3.62109 2.01551,-1.49999 3.38661,-2.47264 4.11328,-2.91797 0.72645,-0.4453 1.44129,-0.66795 2.14453,-0.66797 0.70301,2e-5 1.28895,0.32814 1.75782,0.98438 0.328,0.56251 0.49206,1.31251 0.49218,2.25 l 0,0.77343 c -0.14074,1.31252 -0.98449,2.82423 -2.53125,4.53516 -1.54699,1.71094 -3.82042,3.41016 -6.82031,5.09766 -3.00011,1.6875 -6.04698,2.78906 -9.14062,3.30468 -2.34385,0.375 -4.92197,0.5625 -7.73438,0.5625 -0.89072,0 -1.80478,-0.0234 -2.74219,-0.0703 -3.93758,-0.14062 -7.4532,-0.71484 -10.54687,-1.72266 -3.09383,-1.00781 -8.92976,-4.0664 -17.50781,-9.17578 -2.06256,2.95314 -4.88678,5.48438 -8.47266,7.59375 -3.58599,2.10938 -9.10551,3.28125 -16.55859,3.51563 l -1.82813,0 c -6.51565,0 -11.01565,-1.17188 -13.5,-3.51563 -2.71877,-2.57812 -4.28908,-4.89843 -4.71094,-6.96093 -0.28126,-1.17187 -0.42189,-2.41405 -0.42187,-3.72657 -2e-5,-0.93748 0.0703,-1.94529 0.21094,-3.02343 0.3281,-2.43748 1.27732,-4.80467 2.84765,-7.10157 1.57029,-2.29685 3.96092,-4.04294 7.17188,-5.23828 3.2109,-1.19528 6.62106,-1.81637 10.23047,-1.86328 l 0.70312,0 c 3.32809,3e-5 6.35152,0.32816 9.07031,0.98438 2.85933,0.70315 7.26557,3.21096 13.21875,7.52343 l 9.98438,-37.33593 -2.67188,0 c -4.54693,6e-5 -8.48443,-0.21088 -11.8125,-0.63282 -3.98442,-0.46869 -7.41801,-1.61712 -10.30078,-3.44531 -2.88285,-1.82806 -5.17973,-3.97259 -6.89062,-6.43359 -1.71098,-2.46087 -2.80082,-5.21477 -3.26953,-8.26172 -0.23441,-1.21867 -0.3516,-2.55461 -0.35157,-4.00781 -3e-5,-2.06242 -0.29417,-4.35929 0.12774,-6.89063 3.83356,-0.0345 7.73597,-7.45434 8.36716,1.57559 -0.32816,1.26571 0.0129,2.76043 0.0129,3.9791 -5e-5,1.35946 0.18745,2.69539 0.5625,4.00781 0.60933,2.5782 1.80464,4.78133 3.58593,6.60938 1.7812,1.82819 4.5937,3.09382 8.4375,3.79687 2.76557,0.56257 6.46869,0.84382 11.10938,0.84375 1.82805,7e-5 3.77337,-0.0468 5.83594,-0.14062 z m 8.71875,-0.5625 c 8.20303,-1.17181 13.81631,-2.17962 16.83984,-3.02344 3.02334,-0.84368 5.50771,-2.08586 7.45312,-3.72656 1.94521,-1.64055 3.57411,-3.93742 4.88672,-6.89063 1.31239,-2.95304 2.06239,-6.16397 2.25,-9.63281 l 0,-1.05469 c -1.1e-4,-2.90615 -0.63292,-5.01553 -1.89843,-6.32812 -1.45324,-1.40615 -3.25792,-2.15615 -5.41407,-2.25 l -0.63281,0 c -1.8751,10e-5 -3.60948,0.30479 -5.20312,0.91406 -1.73448,0.70322 -3.52744,1.85166 -5.37891,3.44531 -1.85166,1.59385 -3.48056,3.92588 -4.88672,6.99609 -1.40634,3.07041 -4.07821,10.25399 -8.01562,21.55079 z m -27.35157,54.28125 c -3.4688,-2.24999 -6.18754,-3.91405 -8.15625,-4.99219 -1.96879,-1.07811 -3.82035,-1.80467 -5.55468,-2.17969 -0.65629,-0.0937 -1.35942,-0.1406 -2.10938,-0.14062 -1.35941,2e-5 -2.9766,0.21096 -4.85156,0.63281 -2.85941,0.65627 -4.75784,1.78127 -5.69531,3.375 -0.60941,0.98439 -0.91409,2.01564 -0.91407,3.09375 -2e-5,0.70314 0.1406,1.45314 0.42188,2.25 0.65622,1.92188 2.74216,3.23438 6.25781,3.9375 1.40622,0.28126 2.8359,0.42188 4.28906,0.42187 2.06246,10e-6 4.17184,-0.30467 6.32813,-0.91406 3.56245,-0.98436 6.89057,-2.81249 9.98437,-5.48437 z"
       sodipodi:nodetypes="ccscccccccccsccccccscccccccccccscccscsccccsscsccccccccccccccccccccscccccccscccccccccccccc"
       inkscape:export-filename="C:\Users\Claudia\Pictures\Inkscape files\path4108.png"
       inkscape:export-xdpi="90"
       inkscape:export-ydpi="90" />
    <g
       style="font-size:144px;font-style:oblique;font-variant:normal;font-weight:normal;font-stretch:normal;line-height:125%;letter-spacing:0px;word-spacing:0px;fill:#000000;fill-opacity:1;stroke:none;display:inline;font-family:'That\'s Font Folks!';-inkscape-font-specification:'That\'s Font Folks! Oblique'"
       id="text4514"
       transform="matrix(0.55960514,0.69368523,-0.57814149,0.71880099,519.46494,-11.643433)"
       inkscape:export-filename="C:\Users\Claudia\Pictures\Inkscape files\path4108.png"
       inkscape:export-xdpi="90"
       inkscape:export-ydpi="90">
      <path
         d="m 261.06261,402.19351 c 8.17439,-11.33501 25.41897,-38.14553 19.37971,-39.10642 -10.29008,6.11391 -24.88327,34.03254 -19.37971,39.10642 z m -15.64633,53.19578 c -0.98437,1.52344 -2.7249,9.62026 -3.9483,9.31255 -1.88475,-0.47406 -1.38281,0.28125 -1.89844,0.28125 -0.42187,0 -6.20172,3.41165 -1.05469,-0.21094 -0.60937,-0.23437 1.77643,-2.05588 1.6358,-2.94651 l 0,-0.0703 c 10e-6,-1.5 3.55897,-12.40883 7.35584,-31.4401 1.96875,-9.86716 8.80612,-10.53504 5.16478,-21.91922 -4.8914,-15.29236 16.0944,-50.10429 29.33712,-51.96805 19.46829,-2.73994 -3.6521,31.32596 -9.03454,39.81116 -14.99984,21.12868 -25.04395,49.71931 -27.55757,59.15016 z"
         id="path4519"
         inkscape:connector-curvature="0"
         sodipodi:nodetypes="ccccsccsccsscc" />
    </g>
    <text
       xml:space="preserve"
       style="font-size:64px;font-style:normal;font-variant:normal;font-weight:normal;font-stretch:normal;line-height:125%;letter-spacing:0px;word-spacing:0px;fill:#000000;fill-opacity:1;stroke:none;display:inline;font-family:'ADAM.CG PRO';-inkscape-font-specification:'ADAM.CG PRO'"
       x="179.00099"
       y="592.24341"
       id="text5337"
       sodipodi:linespacing="125%"
       inkscape:export-filename="C:\Users\Claudia\Pictures\Inkscape files\path4108.png"
       inkscape:export-xdpi="90"
       inkscape:export-ydpi="90"><tspan
         sodipodi:role="line"
         id="tspan5339"
         x="179.00099"
         y="592.24341"
         style="font-size:40px">Amateur Radio Club</tspan></text>
    <text
       xml:space="preserve"
       style="font-size:64px;font-style:normal;font-variant:normal;font-weight:normal;font-stretch:normal;line-height:125%;letter-spacing:0px;word-spacing:0px;fill:#000000;fill-opacity:1;stroke:none;display:inline;font-family:'ADAM.CG PRO';-inkscape-font-specification:'ADAM.CG PRO'"
       x="273.74823"
       y="621.9632"
       id="text5341"
       sodipodi:linespacing="125%"
       inkscape:export-filename="C:\Users\Claudia\Pictures\Inkscape files\path4108.png"
       inkscape:export-xdpi="90"
       inkscape:export-ydpi="90"><tspan
         sodipodi:role="line"
         id="tspan5343"
         x="273.74823"
         y="621.9632"
         style="font-size:36px;letter-spacing:-0.94999999px;word-spacing:0px">at OSU - Since 1922</tspan></text>
    <path
       style="fill:none;stroke:#000000;stroke-width:3.2420001;stroke-linecap:round;stroke-linejoin:round;stroke-miterlimit:4;stroke-opacity:1;stroke-dasharray:none;display:inline"
       d="m 500.34308,403.15818 -27.47035,51.73123"
       id="path3121"
       inkscape:connector-curvature="0"
       sodipodi:nodetypes="cc"
       inkscape:export-filename="C:\Users\Claudia\Pictures\Inkscape files\path4108.png"
       inkscape:export-xdpi="90"
       inkscape:export-ydpi="90" />
    <path
       style="fill:none;stroke:#000000;stroke-width:3.2420001;stroke-linecap:round;stroke-linejoin:round;stroke-miterlimit:4;stroke-opacity:1;stroke-dasharray:none;display:inline"
       d="M 552.84309,408.98977 525.37274,460.721"
       id="path3121-2"
       inkscape:connector-curvature="0"
       sodipodi:nodetypes="cc"
       inkscape:export-filename="C:\Users\Claudia\Pictures\Inkscape files\path4108.png"
       inkscape:export-xdpi="90"
       inkscape:export-ydpi="90" />
    <path
       style="fill:none;stroke:#000000;stroke-width:3.2420001;stroke-linecap:round;stroke-linejoin:round;stroke-miterlimit:4;stroke-opacity:1;stroke-dasharray:none;display:inline"
       d="m 528.91451,405.83676 -27.47035,51.73123"
       id="path3121-2-3"
       inkscape:connector-curvature="0"
       sodipodi:nodetypes="cc"
       inkscape:export-filename="C:\Users\Claudia\Pictures\Inkscape files\path4108.png"
       inkscape:export-xdpi="90"
       inkscape:export-ydpi="90" />
    <path
       style="fill:none;stroke:#000000;stroke-width:3.2420001;stroke-linecap:round;stroke-linejoin:round;stroke-miterlimit:4;stroke-opacity:1;stroke-dasharray:none;display:inline"
       d="m 622.55025,411.32835 -35.00183,62.47993"
       id="path3121-2-2"
       inkscape:connector-curvature="0"
       sodipodi:nodetypes="cc"
       inkscape:export-filename="C:\Users\Claudia\Pictures\Inkscape files\path4108.png"
       inkscape:export-xdpi="90"
       inkscape:export-ydpi="90" />
    <path
       style="fill:#000000;fill-opacity:1;stroke:#000000;stroke-width:0.60000002;stroke-linecap:butt;stroke-linejoin:miter;stroke-miterlimit:4;stroke-opacity:1;stroke-dasharray:none;display:inline"
       d="m 558.5224,469.35265 27.44308,-55.68373 -2.32241,-3.87898 -29.64688,57.87552 z"
       id="path3962"
       inkscape:connector-curvature="0"
       sodipodi:nodetypes="ccccc"
       inkscape:export-filename="C:\Users\Claudia\Pictures\Inkscape files\path4108.png"
       inkscape:export-xdpi="90"
       inkscape:export-ydpi="90" />
    <path
       style="fill:#000000;fill-opacity:1;stroke:#000000;stroke-width:0;stroke-linecap:butt;stroke-linejoin:miter;stroke-miterlimit:4;stroke-opacity:1;stroke-dasharray:none;display:inline"
       d="m 183.75076,478.13094 -5.79722,-0.81889 -1.3023,11.53318 -3.5281,1.45024 -0.23088,2.97969 -1.38885,0.31399 -1.38896,14.77348 1.6415,0.75762 -0.25254,2.39911 c 0,0 -0.3527,0.79547 2.77792,2.39911 2.98357,1.52831 4.08208,1.63608 4.08208,1.63608 l -0.8144,4.66971 0.86856,0.40497 -0.2219,1.14949 1.19956,0.31567 0.27737,-1.19414 0.89472,0.10557 0.70438,-4.9484 c 0,0 1.88186,-0.0113 4.25393,-0.29269 2.37207,-0.2814 4.03202,-1.46928 4.03202,-1.46928 0.41037,-2.14657 0.49966,-2.42527 0.49966,-2.42527 l 1.39662,-0.58035 1.38896,-16.05915 -1.51523,-0.75762 0.25254,-3.28299 -3.03046,-1.76776 1.01015,-10.85915 z"
       id="path4108"
       inkscape:connector-curvature="0"
       sodipodi:nodetypes="cccccccccscccccccczccccccccc"
       inkscape:export-xdpi="90"
       inkscape:export-ydpi="90" />
  </g>
</svg>
